<?xml version="1.0" encoding="utf-8"?>
<!-- Generator: Adobe Illustrator 24.1.0, SVG Export Plug-In . SVG Version: 6.00 Build 0)  -->
<svg version="1.1" baseProfile="basic" id="Слой_1"
	 xmlns="http://www.w3.org/2000/svg" xmlns:xlink="http://www.w3.org/1999/xlink" x="0px" y="0px" viewBox="0 0 841.9 595.3"
	 xml:space="preserve">
<style type="text/css">
	.st0{fill-rule:evenodd;clip-rule:evenodd;fill:#55B03B;}
	.st1{fill-rule:evenodd;clip-rule:evenodd;fill:#E6185F;}
	.st2{fill-rule:evenodd;clip-rule:evenodd;fill:#B0CB21;}
	.st3{fill-rule:evenodd;clip-rule:evenodd;fill:#ED709D;}
	.st4{fill-rule:evenodd;clip-rule:evenodd;fill:#E74724;}
	.st5{fill-rule:evenodd;clip-rule:evenodd;fill:#0087AD;}
	.st6{fill-rule:evenodd;clip-rule:evenodd;fill:#00ABC2;}
	.st7{fill-rule:evenodd;clip-rule:evenodd;fill:#008941;}
	.st8{fill-rule:evenodd;clip-rule:evenodd;fill:#C7274E;}
	.st9{fill-rule:evenodd;clip-rule:evenodd;fill:#EE741E;}
	.st10{fill-rule:evenodd;clip-rule:evenodd;fill:#97D3DD;}
	.st11{fill-rule:evenodd;clip-rule:evenodd;fill:#F7A709;}
</style>
<g id="Слой_x0020_1">
	<g id="_105553228556320">
		<g>
			<polygon class="st0" points="290.3,127.9 388,127.9 408.3,78.9 			"/>
			<polygon class="st1" points="590.5,167.4 590.5,265.4 639.5,285.6 			"/>
			<polygon class="st2" points="432.7,78.9 453,127.9 551,127.9 			"/>
			<polygon class="st3" points="639.5,310.1 590.5,330.4 590.5,428.3 			"/>
			<polygon class="st4" points="551,467.9 453,467.9 432.7,516.9 			"/>
			<polygon class="st5" points="250.5,428.3 250.5,330.4 201.5,310.1 			"/>
			<polygon class="st6" points="206.4,298 250.5,316.1 250.5,279.7 			"/>
			<polygon class="st7" points="420.6,83.8 402.3,127.9 438.7,127.9 			"/>
			<polygon class="st8" points="634.6,298 590.5,279.7 590.5,316.1 			"/>
			<polygon class="st5" points="480,184.5 533.9,238.4 572,146.7 			"/>
			<polygon class="st7" points="533.9,357.4 480,411.3 572,449.1 			"/>
			<polygon class="st8" points="361,411.3 307.1,357.4 269.3,449.1 			"/>
			<polygon class="st4" points="307.1,238.4 361,184.5 269.3,146.7 			"/>
			<polygon class="st9" points="263.6,259.9 296.2,246.3 263.6,167.4 			"/>
			<polygon class="st10" points="296.2,349.5 263.6,335.9 263.6,428.3 			"/>
			<polygon class="st6" points="458.5,141 472.1,173.6 551,141 			"/>
			<polygon class="st2" points="369.2,173.6 382.5,141 290.3,141 			"/>
			<polygon class="st11" points="472.1,422.2 458.5,454.8 551,454.8 			"/>
			<polygon class="st0" points="577.4,335.9 544.8,349.5 577.4,428.3 			"/>
			<polygon class="st3" points="545,246.3 577.7,259.9 577.7,167.4 			"/>
			<polygon class="st10" points="382.5,175.6 458.5,175.6 444.1,141 396.9,141 			"/>
			<polygon class="st2" points="577.4,274.3 542.8,259.9 542.8,335.9 577.4,321.5 			"/>
			<polygon class="st11" points="408.3,516.9 388,467.9 290.3,467.9 			"/>
			<polygon class="st9" points="420.6,511.9 438.7,467.9 402.3,467.9 			"/>
			<polygon class="st1" points="382.5,454.8 369.2,422.2 290.3,454.8 			"/>
			<polygon class="st3" points="444.1,454.8 458.5,420.2 382.5,420.2 396.9,454.8 			"/>
			<polygon class="st11" points="263.6,321.5 298.2,335.9 298.2,259.9 263.6,274.3 			"/>
			<polygon class="st10" points="201.5,285.6 250.5,265.4 250.5,167.4 			"/>
		</g>
	</g>
</g>
</svg>
